<?xml version="1.0" encoding="utf-8"?>
<!-- Generator: Adobe Illustrator 23.0.1, SVG Export Plug-In . SVG Version: 6.00 Build 0)  -->
<svg version="1.1" id="edc472ec-0d65-4f6a-9343-137d03c8e1d4"
	 xmlns="http://www.w3.org/2000/svg" xmlns:xlink="http://www.w3.org/1999/xlink" x="0px" y="0px" viewBox="0 0 732 603.8"
	 style="enable-background:new 0 0 732 603.8;" xml:space="preserve">
<style type="text/css">
	.st0{fill:#3D0027;}
	.st1{fill:#3F3D56;}
	.st2{fill:#FF6584;}
	.st3{fill:#E5E5E5;}
	.st4{fill:#6C63FF;}
	.st5{fill:#CBCBCB;}
	.st6{fill:#FFB8B8;}
	.st7{fill:#CCCCCC;}
	.st8{fill:#2F2E41;}
</style>
<rect x="58.9" y="354.5" class="st0" width="144.3" height="135"/>
<path class="st1" d="M262.1,536.4H0V307.6h262.1V536.4z M1.6,534.8h259V309.1H1.6V534.8z"/>
<path class="st1" d="M621.6,220.9c-61,0-110.4-49.4-110.4-110.4S560.6,0,621.6,0S732,49.4,732,110.4c0,0,0,0,0,0
	C731.9,171.4,682.5,220.8,621.6,220.9z M621.6,1.6c-60.1,0-108.8,48.7-108.8,108.8s48.7,108.8,108.8,108.8
	c60.1,0,108.8-48.7,108.8-108.8C730.3,50.4,681.6,1.7,621.6,1.6L621.6,1.6z"/>
<circle class="st0" cx="618.3" cy="110.4" r="53.2"/>
<rect x="682" y="278.3" transform="matrix(0.866 -0.5 0.5 0.866 -54.4617 389.8515)" class="st2" width="36.5" height="36.5"/>
<rect x="200" y="101.3" transform="matrix(0.866 -0.5 0.5 0.866 -30.5374 125.138)" class="st0" width="36.5" height="36.5"/>
<rect x="638" y="477.3" transform="matrix(0.866 -0.5 0.5 0.866 -159.8566 394.5124)" class="st3" width="36.5" height="36.5"/>
<rect x="117.9" y="408.8" class="st4" width="26.4" height="26.4"/>
<circle class="st4" cx="618.3" cy="110.4" r="13.1"/>
<rect x="520.1" y="302.4" transform="matrix(0.866 -0.5 0.5 0.866 -95.8521 325.3804)" class="st4" width="78.2" height="78.2"/>
<rect x="179" y="601.8" class="st5" width="420" height="2"/>
<path class="st6" d="M338.4,332c-4.6-5.9-3.5-14.4,2.4-19c0.6-0.5,1.3-0.9,2-1.3l-2.8-30.8l18.3-6.3l3.4,43.6c3.1,6.9,0,14.9-6.9,18
	C349,338.8,342.2,337,338.4,332L338.4,332z"/>
<path class="st7" d="M358.1,155c0,0,12.6-26.4,23.7-17.1s-15.3,87.3-15.3,87.3l-4,75.7l-21.2-2.1l-6-73.8L358.1,155z"/>
<polygon class="st6" points="189.4,545.4 205.2,558.2 261.9,503.5 238.6,484.6 "/>
<path class="st8" d="M189.5,537l31,25.1l0,0c10.9,8.8,12.6,24.9,3.8,35.8l-0.5,0.6L173,557.5L189.5,537z"/>
<polygon class="st6" points="408.5,580.9 428.8,580.9 438.4,502.6 408.5,502.6 "/>
<path class="st8" d="M403.3,574.2l39.9,0h0c14.1,0,25.5,11.4,25.5,25.5v0.8l-65.4,0L403.3,574.2z"/>
<path class="st0" d="M444.1,214.1c0,0,38,46.3,29.8,92.6s-14.9,81.1-14.9,81.1L445.7,492c0,0,5,28.4-1.7,35.7c0,0,9.9,17.2-8.3,23.9
	s-28-2.3-28-2.3s-13.3-19.2-5.1-24.2l3.5-204.5L273.7,493.7c0,0-2.4,21.1-19.4,21.3L234,530.1l-23.2-13.2l11.6-14.9
	c0,0-6.6-16.5,8.3-19.9l86-112.5l21.5-57.9c0,0,11.6-44.7,43-62.9v-19.4L444.1,214.1z"/>
<path class="st7" d="M378.7,133.9L378.7,133.9c10.4-12.3,28.3-14.8,41.6-5.9l1.4,0.9l0,0c14.7,16.6,24.6,36.9,28.5,58.8l6.2,33.9
	l-77.8,16.8l-18.2-62.9C355.7,159.1,363.4,141.6,378.7,133.9L378.7,133.9z"/>
<path class="st6" d="M506.5,339.2c-8.1-2.7-12.6-11.4-9.9-19.6c0.3-0.9,0.6-1.7,1.1-2.5l-22.4-27.5l13.4-17.7l31.1,39.2
	c7.3,4.6,9.5,14.2,5,21.5C520.8,338.8,513.3,341.5,506.5,339.2L506.5,339.2z"/>
<path class="st7" d="M411.8,158.7c0,0-5-33.1,11.6-31.4s41.4,92.6,41.4,92.6l44.7,74.4l-21.5,11.6L435,239.8L411.8,158.7z"/>
<path class="st8" d="M442.1,110.3h-78.8c-3.4,0-6.1-2.7-6.1-6.1v-34c0-25.1,20.4-45.5,45.5-45.5c25.1,0,45.5,20.4,45.5,45.5v34
	C448.2,107.6,445.5,110.3,442.1,110.3z"/>
<ellipse transform="matrix(0.4797 -0.8775 0.8775 0.4797 147.5603 401.2029)" class="st6" cx="412.1" cy="76.2" rx="33.4" ry="33.4"/>
<path class="st8" d="M459,73.7h-42l-0.4-6.9l-2.2,6.9h-6.5L407.1,60l-4.3,13.7h-12.5V73c0-19.8,14.1-36,31.4-36h5.9
	c17.3,0,31.4,16.1,31.4,36L459,73.7z"/>
<path class="st8" d="M418.7,116.7c-0.5,0-1,0-1.5-0.1l-50-7.7v-52c0-11.1,9-20,20-20h35l-1.4,1.4c-18.9,19.3-4.7,50.6,5.5,67.5
	c1.5,2.5,1.3,5.7-0.7,7.9C424,115.6,421.4,116.7,418.7,116.7z"/>
</svg>
